# xmcd
#
# Track frame offsets: 
#        150
#        19605
#        36644
#        59299
#        76557
#        97669
#        119180
#        136004
#        153185
#        175114
#        196781
#        216795
#        237783
#        256467
#
# Disc length: 3661 seconds
#
# Revision: 2
# Processed by: cddbd v1.5.2PL0 Copyright (c) Steve Scherf et al.
# Submitted via: ExactAudioCopy v1.3
#
DISCID=ac0e4b0e
DTITLE=渡辺美里 - ribbon -30th Anniversary Edition-
DYEAR=2018
DGENRE=JPop
TTITLE0=センチメンタル カンガルー
TTITLE1=恋したっていいじゃない
TTITLE2=さくらの花の咲くころに
TTITLE3=Believe (Remix Version)
TTITLE4=シャララ
TTITLE5=19才の秘かな欲望 (The Lover Soul Version)
TTITLE6=彼女の彼
TTITLE7=ぼくでなくっちゃ
TTITLE8=Tokyo Calling
TTITLE9=悲しいね (Remix Version)
TTITLE10=10 years
TTITLE11=Half Moon
TTITLE12=New Boyfriend
TTITLE13=君の弱さ
EXTD=
EXTT0=
EXTT1=
EXTT2=
EXTT3=
EXTT4=
EXTT5=
EXTT6=
EXTT7=
EXTT8=
EXTT9=
EXTT10=
EXTT11=
EXTT12=
EXTT13=
PLAYORDER=
